{
    "asset" : {
        "generator" : "Khronos glTF Blender I/O v1.8.19",
        "version" : "2.0"
    },
    "scene" : 0,
    "scenes" : [
        {
            "name" : "Scene",
            "nodes" : [
                0,
                1,
                2,
                3,
                4,
                5,
                6,
                7
            ]
        }
    ],
    "nodes" : [
        {
            "mesh" : 0,
            "name" : "Cylinder",
            "rotation" : [
                0,
                0.5843821167945862,
                0,
                0.8114786148071289
            ],
            "translation" : [
                1,
                55,
                -8
            ]
        },
        {
            "mesh" : 1,
            "name" : "Cylinder.001",
            "rotation" : [
                0,
                -0.37516358494758606,
                0,
                0.9269587397575378
            ],
            "translation" : [
                -5,
                62,
                -4
            ]
        },
        {
            "mesh" : 2,
            "name" : "Cylinder.002",
            "rotation" : [
                0,
                -0.8418281674385071,
                0,
                0.5397456884384155
            ],
            "translation" : [
                5,
                63,
                -4
            ]
        },
        {
            "mesh" : 3,
            "name" : "Cylinder.003",
            "rotation" : [
                0,
                -0.8685564994812012,
                0,
                0.4955902099609375
            ],
            "scale" : [
                1,
                1,
                -1
            ],
            "translation" : [
                5,
                68,
                3.497272491455078
            ]
        },
        {
            "mesh" : 4,
            "name" : "Cylinder.004",
            "rotation" : [
                0,
                -0.5372389554977417,
                0,
                0.8434301018714905
            ],
            "scale" : [
                1,
                1,
                -1
            ],
            "translation" : [
                -5,
                62,
                3.497272491455078
            ]
        },
        {
            "mesh" : 5,
            "name" : "Cylinder.005",
            "rotation" : [
                0,
                0.7342192530632019,
                0,
                0.6789124011993408
            ],
            "scale" : [
                1,
                1,
                -1
            ],
            "translation" : [
                0,
                60,
                7.497272491455078
            ]
        },
        {
            "mesh" : 6,
            "name" : "Cube",
            "translation" : [
                -0.09873076528310776,
                0.6999969482421875,
                -0.08603858947753906
            ]
        },
        {
            "mesh" : 7,
            "name" : "Cube.001",
            "translation" : [
                2,
                25,
                0
            ]
        }
    ],
    "meshes" : [
        {
            "name" : "Cylinder",
            "primitives" : [
                {
                    "attributes" : {
                        "POSITION" : 0,
                        "NORMAL" : 1,
                        "TEXCOORD_0" : 2
                    },
                    "indices" : 3
                }
            ]
        },
        {
            "name" : "Cylinder.001",
            "primitives" : [
                {
                    "attributes" : {
                        "POSITION" : 4,
                        "NORMAL" : 5,
                        "TEXCOORD_0" : 6
                    },
                    "indices" : 7
                }
            ]
        },
        {
            "name" : "Cylinder.002",
            "primitives" : [
                {
                    "attributes" : {
                        "POSITION" : 8,
                        "NORMAL" : 9,
                        "TEXCOORD_0" : 10
                    },
                    "indices" : 11
                }
            ]
        },
        {
            "name" : "Cylinder.003",
            "primitives" : [
                {
                    "attributes" : {
                        "POSITION" : 12,
                        "NORMAL" : 13,
                        "TEXCOORD_0" : 14
                    },
                    "indices" : 15
                }
            ]
        },
        {
            "name" : "Cylinder.004",
            "primitives" : [
                {
                    "attributes" : {
                        "POSITION" : 16,
                        "NORMAL" : 17,
                        "TEXCOORD_0" : 18
                    },
                    "indices" : 19
                }
            ]
        },
        {
            "name" : "Cylinder.005",
            "primitives" : [
                {
                    "attributes" : {
                        "POSITION" : 20,
                        "NORMAL" : 21,
                        "TEXCOORD_0" : 22
                    },
                    "indices" : 7
                }
            ]
        },
        {
            "name" : "Cube.001",
            "primitives" : [
                {
                    "attributes" : {
                        "POSITION" : 23,
                        "NORMAL" : 24,
                        "TEXCOORD_0" : 25
                    },
                    "indices" : 26
                }
            ]
        },
        {
            "name" : "Cube.002",
            "primitives" : [
                {
                    "attributes" : {
                        "POSITION" : 27,
                        "NORMAL" : 28,
                        "TEXCOORD_0" : 29
                    },
                    "indices" : 30
                }
            ]
        }
    ],
    "accessors" : [
        {
            "bufferView" : 0,
            "componentType" : 5126,
            "count" : 111,
            "max" : [
                3.194657564163208,
                5,
                3.194657564163208
            ],
            "min" : [
                -3.194657564163208,
                -53.33332824707031,
                -3.194657564163208
            ],
            "type" : "VEC3"
        },
        {
            "bufferView" : 1,
            "componentType" : 5126,
            "count" : 111,
            "type" : "VEC3"
        },
        {
            "bufferView" : 2,
            "componentType" : 5126,
            "count" : 111,
            "type" : "VEC2"
        },
        {
            "bufferView" : 3,
            "componentType" : 5123,
            "count" : 516,
            "type" : "SCALAR"
        },
        {
            "bufferView" : 4,
            "componentType" : 5126,
            "count" : 111,
            "max" : [
                3.194657564163208,
                5,
                3.194657564163208
            ],
            "min" : [
                -3.194657564163208,
                -60.33332824707031,
                -3.194657564163208
            ],
            "type" : "VEC3"
        },
        {
            "bufferView" : 5,
            "componentType" : 5126,
            "count" : 111,
            "type" : "VEC3"
        },
        {
            "bufferView" : 6,
            "componentType" : 5126,
            "count" : 111,
            "type" : "VEC2"
        },
        {
            "bufferView" : 7,
            "componentType" : 5123,
            "count" : 516,
            "type" : "SCALAR"
        },
        {
            "bufferView" : 8,
            "componentType" : 5126,
            "count" : 111,
            "max" : [
                3.194657564163208,
                5,
                3.194657564163208
            ],
            "min" : [
                -3.194657564163208,
                -61.33332824707031,
                -3.194657564163208
            ],
            "type" : "VEC3"
        },
        {
            "bufferView" : 9,
            "componentType" : 5126,
            "count" : 111,
            "type" : "VEC3"
        },
        {
            "bufferView" : 10,
            "componentType" : 5126,
            "count" : 111,
            "type" : "VEC2"
        },
        {
            "bufferView" : 11,
            "componentType" : 5123,
            "count" : 516,
            "type" : "SCALAR"
        },
        {
            "bufferView" : 12,
            "componentType" : 5126,
            "count" : 111,
            "max" : [
                3.194657564163208,
                5,
                3.194657564163208
            ],
            "min" : [
                -3.194657564163208,
                -66.33332824707031,
                -3.194657564163208
            ],
            "type" : "VEC3"
        },
        {
            "bufferView" : 13,
            "componentType" : 5126,
            "count" : 111,
            "type" : "VEC3"
        },
        {
            "bufferView" : 14,
            "componentType" : 5126,
            "count" : 111,
            "type" : "VEC2"
        },
        {
            "bufferView" : 15,
            "componentType" : 5123,
            "count" : 516,
            "type" : "SCALAR"
        },
        {
            "bufferView" : 16,
            "componentType" : 5126,
            "count" : 111,
            "max" : [
                3.194657564163208,
                5,
                3.194657564163208
            ],
            "min" : [
                -3.194657564163208,
                -60.33332824707031,
                -3.194657564163208
            ],
            "type" : "VEC3"
        },
        {
            "bufferView" : 17,
            "componentType" : 5126,
            "count" : 111,
            "type" : "VEC3"
        },
        {
            "bufferView" : 18,
            "componentType" : 5126,
            "count" : 111,
            "type" : "VEC2"
        },
        {
            "bufferView" : 19,
            "componentType" : 5123,
            "count" : 516,
            "type" : "SCALAR"
        },
        {
            "bufferView" : 20,
            "componentType" : 5126,
            "count" : 111,
            "max" : [
                3.194657564163208,
                5,
                3.194657564163208
            ],
            "min" : [
                -3.194657564163208,
                -58.33332824707031,
                -3.194657564163208
            ],
            "type" : "VEC3"
        },
        {
            "bufferView" : 21,
            "componentType" : 5126,
            "count" : 111,
            "type" : "VEC3"
        },
        {
            "bufferView" : 22,
            "componentType" : 5126,
            "count" : 111,
            "type" : "VEC2"
        },
        {
            "bufferView" : 23,
            "componentType" : 5126,
            "count" : 24,
            "max" : [
                12,
                1,
                12
            ],
            "min" : [
                -12,
                -1,
                -12
            ],
            "type" : "VEC3"
        },
        {
            "bufferView" : 24,
            "componentType" : 5126,
            "count" : 24,
            "type" : "VEC3"
        },
        {
            "bufferView" : 25,
            "componentType" : 5126,
            "count" : 24,
            "type" : "VEC2"
        },
        {
            "bufferView" : 26,
            "componentType" : 5123,
            "count" : 36,
            "type" : "SCALAR"
        },
        {
            "bufferView" : 27,
            "componentType" : 5126,
            "count" : 505,
            "max" : [
                4.319999694824219,
                4.538269519805908,
                10.100000381469727
            ],
            "min" : [
                -8.319999694824219,
                -4.538269519805908,
                -10.100000381469727
            ],
            "type" : "VEC3"
        },
        {
            "bufferView" : 28,
            "componentType" : 5126,
            "count" : 505,
            "type" : "VEC3"
        },
        {
            "bufferView" : 29,
            "componentType" : 5126,
            "count" : 505,
            "type" : "VEC2"
        },
        {
            "bufferView" : 30,
            "componentType" : 5123,
            "count" : 768,
            "type" : "SCALAR"
        }
    ],
    "bufferViews" : [
        {
            "buffer" : 0,
            "byteLength" : 1332,
            "byteOffset" : 0
        },
        {
            "buffer" : 0,
            "byteLength" : 1332,
            "byteOffset" : 1332
        },
        {
            "buffer" : 0,
            "byteLength" : 888,
            "byteOffset" : 2664
        },
        {
            "buffer" : 0,
            "byteLength" : 1032,
            "byteOffset" : 3552
        },
        {
            "buffer" : 0,
            "byteLength" : 1332,
            "byteOffset" : 4584
        },
        {
            "buffer" : 0,
            "byteLength" : 1332,
            "byteOffset" : 5916
        },
        {
            "buffer" : 0,
            "byteLength" : 888,
            "byteOffset" : 7248
        },
        {
            "buffer" : 0,
            "byteLength" : 1032,
            "byteOffset" : 8136
        },
        {
            "buffer" : 0,
            "byteLength" : 1332,
            "byteOffset" : 9168
        },
        {
            "buffer" : 0,
            "byteLength" : 1332,
            "byteOffset" : 10500
        },
        {
            "buffer" : 0,
            "byteLength" : 888,
            "byteOffset" : 11832
        },
        {
            "buffer" : 0,
            "byteLength" : 1032,
            "byteOffset" : 12720
        },
        {
            "buffer" : 0,
            "byteLength" : 1332,
            "byteOffset" : 13752
        },
        {
            "buffer" : 0,
            "byteLength" : 1332,
            "byteOffset" : 15084
        },
        {
            "buffer" : 0,
            "byteLength" : 888,
            "byteOffset" : 16416
        },
        {
            "buffer" : 0,
            "byteLength" : 1032,
            "byteOffset" : 17304
        },
        {
            "buffer" : 0,
            "byteLength" : 1332,
            "byteOffset" : 18336
        },
        {
            "buffer" : 0,
            "byteLength" : 1332,
            "byteOffset" : 19668
        },
        {
            "buffer" : 0,
            "byteLength" : 888,
            "byteOffset" : 21000
        },
        {
            "buffer" : 0,
            "byteLength" : 1032,
            "byteOffset" : 21888
        },
        {
            "buffer" : 0,
            "byteLength" : 1332,
            "byteOffset" : 22920
        },
        {
            "buffer" : 0,
            "byteLength" : 1332,
            "byteOffset" : 24252
        },
        {
            "buffer" : 0,
            "byteLength" : 888,
            "byteOffset" : 25584
        },
        {
            "buffer" : 0,
            "byteLength" : 288,
            "byteOffset" : 26472
        },
        {
            "buffer" : 0,
            "byteLength" : 288,
            "byteOffset" : 26760
        },
        {
            "buffer" : 0,
            "byteLength" : 192,
            "byteOffset" : 27048
        },
        {
            "buffer" : 0,
            "byteLength" : 72,
            "byteOffset" : 27240
        },
        {
            "buffer" : 0,
            "byteLength" : 6060,
            "byteOffset" : 27312
        },
        {
            "buffer" : 0,
            "byteLength" : 6060,
            "byteOffset" : 33372
        },
        {
            "buffer" : 0,
            "byteLength" : 4040,
            "byteOffset" : 39432
        },
        {
            "buffer" : 0,
            "byteLength" : 1536,
            "byteOffset" : 43472
        }
    ],
    "buffers" : [
        {
            "byteLength" : 45008,
            "uri" : "untitled.bin"
        }
    ]
}
